<svg xmlns="http://www.w3.org/2000/svg" width="150" height="146" fill="none" viewBox="0 0 150 146">
    <path fill="url(#a)" fill-rule="evenodd" d="M84.773 135.769a66.798 66.798 0 0 1-13.956 1.472c-17.742 0-34.422-6.91-46.967-19.455C11.302 105.24 4.395 88.56 4.395 70.817c0-17.742 6.908-34.421 19.454-46.967C36.397 11.303 53.075 4.395 70.817 4.395c17.743 0 34.423 6.91 46.969 19.454 12.545 12.547 19.455 29.226 19.455 46.968 0 2.463-.137 4.948-.407 7.384a2.196 2.196 0 1 0 4.367.484c.288-2.597.433-5.244.433-7.868 0-18.916-7.365-36.7-20.741-50.075S89.733 0 70.817 0s-36.7 7.367-50.075 20.742S0 51.902 0 70.817c0 18.916 7.367 36.7 20.742 50.076 13.375 13.376 31.16 20.743 50.075 20.743 5.01 0 10.015-.528 14.876-1.569a2.199 2.199 0 0 0-.92-4.298zm43.091-66.53a2.197 2.197 0 1 1-4.394 0c0-29.066-23.647-52.713-52.712-52.713a52.716 52.716 0 0 0-34.285 12.672 2.196 2.196 0 1 1-2.86-3.335 57.116 57.116 0 0 1 37.145-13.73c31.488 0 57.106 25.618 57.106 57.106zM19.995 54.985c-.272.97-1.562 1.76-2.708 1.524-1.188-.245-1.85-1.54-1.522-2.71a56.658 56.658 0 0 1 10.464-20.317 2.198 2.198 0 0 1 3.425 2.754 52.279 52.279 0 0 0-9.659 18.75zm93.675 17.787c.031 0 .063 0 .094-.002l.024-.001.022-.002c.014 0 .027-.002.041-.003a2.198 2.198 0 0 0 2.012-2.368c-.752-9.194-3.325-17.863-7.65-25.765-3.511-6.416-8.802-11.834-15.3-15.674-6.673-3.942-14.335-6.027-22.156-6.027-20.492 0-38.616 13.703-44.077 33.328-.19.694-.42 1.679-.68 2.927a4.506 4.506 0 0 1-3.838 3.565c-1.84.233-3.95.397-6.269.49a2.197 2.197 0 0 0 .176 4.391c2.444-.097 4.679-.273 6.643-.52a8.903 8.903 0 0 0 7.59-7.032c.242-1.157.448-2.05.613-2.65 4.933-17.725 21.316-30.105 39.842-30.105 7.036 0 13.924 1.873 19.921 5.416 5.817 3.437 10.548 8.278 13.679 13.999 4.028 7.358 6.426 15.438 7.125 24.013a2.198 2.198 0 0 0 2.188 2.02zm-9.71 3.04h-.063a2.196 2.196 0 0 1-2.134-2.257c.051-1.844-.003-3.374-.158-4.552a2.172 2.172 0 0 1-.019-.254c-.124-7.94-3.27-15.443-8.86-21.123a2.198 2.198 0 0 1 3.132-3.083c6.356 6.46 9.947 14.984 10.12 24.012.173 1.387.233 3.11.177 5.122a2.197 2.197 0 0 1-2.195 2.136zm-87.905 2.342l.3-.011c6.775-.265 12.378-1.118 16.656-2.539 3.971-1.318 6.744-4.922 7.064-9.18.062-.827.163-1.648.3-2.44 1.22-7.075 4.92-13.549 10.419-18.228a30.838 30.838 0 0 1 19.964-7.35c4.962 0 9.896 1.212 14.269 3.506a2.198 2.198 0 0 0 2.041-3.892 35.252 35.252 0 0 0-16.31-4.008 35.23 35.23 0 0 0-22.811 8.398c-6.28 5.344-10.508 12.74-11.903 20.827-.16.93-.278 1.892-.35 2.86-.187 2.484-1.784 4.578-4.068 5.337-2.67.887-7.517 2.008-15.441 2.317l-.3.012a2.198 2.198 0 0 0 .084 4.393c.028 0 .057 0 .086-.002zm53.124 47.138a57.631 57.631 0 0 0 7.156-3.746 2.199 2.199 0 0 1 3.025.711 2.199 2.199 0 0 1-.713 3.026 61.757 61.757 0 0 1-7.703 4.034 2.2 2.2 0 0 1-2.895-1.13 2.199 2.199 0 0 1 1.13-2.895zM92.915 80.44a2.2 2.2 0 0 0 2.414-1.956c.527-5.047.22-8.622.143-9.366-.067-13.572-11.127-24.592-24.714-24.592a24.656 24.656 0 0 0-24.354 20.5c-.274 1.586-.352 3.3-.243 5.24.07 1.183-.152 3.536-2.387 5.997-2.979 3.28-10.112 7.328-27.18 7.994a2.197 2.197 0 1 0 .171 4.391c14.925-.582 25.107-3.755 30.263-9.43 3.313-3.648 3.629-7.332 3.521-9.203-.091-1.602-.03-2.99.185-4.242A20.27 20.27 0 0 1 70.758 48.92c11.204 0 20.32 9.115 20.32 20.319 0 .086.005.173.014.257.005.034.393 3.486-.134 8.531a2.198 2.198 0 0 0 1.957 2.413zm-16.632 27.25a2.197 2.197 0 1 1 2.911 3.291c-7.892 6.981-18.427 11.634-31.313 13.832a2.196 2.196 0 0 1-2.535-1.796 2.196 2.196 0 0 1 1.795-2.536c12.067-2.058 21.872-6.362 29.142-12.791zm9.243-38.541c-.05-8.103-6.656-14.679-14.769-14.679a14.732 14.732 0 0 0-14.553 12.247c-.144.83-.181 1.806-.113 2.98.155 2.74-.28 8.105-4.956 13.252-4.84 5.33-12.497 8.699-23.404 10.296-2.918.226-5.705.464-8.282.706a2.197 2.197 0 0 0 .412 4.376c2.576-.243 5.363-.481 8.283-.707.05-.003.097-.009.147-.016 11.995-1.746 20.531-5.573 26.098-11.7 5.753-6.335 6.284-13.031 6.088-16.458-.047-.825-.027-1.492.056-1.982.86-4.983 5.16-8.599 10.224-8.599 5.72 0 10.374 4.653 10.374 10.374 0 .062.003.125.008.187.014.16 1.255 16.164-8.78 27.29-5.556 6.157-18.609 13.427-38.587 15.363a2.196 2.196 0 1 0 .424 4.373c17.761-1.72 33.634-8.155 41.425-16.793 10.992-12.184 10.024-28.93 9.905-30.51zm-46.6 32.17c3.296-.807 6.45-1.86 9.37-3.129 5.542-2.407 10.387-5.646 14.404-9.629 3.736-3.704 5.72-9.902 5.587-17.454-.01-.587-.023-1.317.645-1.987a2.199 2.199 0 0 1 3.745 1.722l.004.188c.153 8.76-2.293 16.095-6.887 20.652-4.405 4.368-9.703 7.914-15.746 10.539-3.15 1.368-6.54 2.501-10.077 3.367-4.537 1.111-9.377 1.8-14.385 2.048a2.197 2.197 0 0 1-.217-4.388c4.728-.235 9.29-.884 13.556-1.929zm70.9 13.097a2.197 2.197 0 0 0-2.198 2.197v4.417a2.197 2.197 0 1 0 4.395 0v-4.417a2.197 2.197 0 0 0-2.197-2.197zm4.495 2.197a2.197 2.197 0 1 1 4.394 0v4.417a2.196 2.196 0 1 1-4.394 0v-4.417zm8.89-2.197a2.198 2.198 0 0 0-2.198 2.197v4.417a2.197 2.197 0 1 0 4.395 0v-4.417a2.197 2.197 0 0 0-2.197-2.197zm-40.175-2.329c0-18.462 15.02-33.482 33.482-33.482S150 93.625 150 112.087c0 18.463-15.02 33.482-33.482 33.482s-33.482-15.019-33.482-33.482zm4.395 0c0 16.039 13.048 29.087 29.087 29.087s29.087-13.048 29.087-29.087-13.048-29.088-29.087-29.088-29.087 13.049-29.087 29.088zm41.607-6.647h.453a3.483 3.483 0 0 1 3.479 3.479v18.557a3.483 3.483 0 0 1-3.479 3.479h-25.946a3.483 3.483 0 0 1-3.479-3.479v-18.557a3.483 3.483 0 0 1 3.479-3.479h.453v-3.868c0-6.903 5.617-12.519 12.52-12.519s12.52 5.616 12.52 12.519v3.868zm-12.52-11.992c-4.48 0-8.125 3.645-8.125 8.124v3.868h16.249v-3.868c0-4.48-3.644-8.124-8.124-8.124zm-12.057 33.112h24.115v-16.725h-24.115v16.725z" clip-rule="evenodd" opacity=".5"/>
    <defs>
        <linearGradient id="a" x1="20.214" x2="145.49" y1="162.383" y2="9.917" gradientUnits="userSpaceOnUse">
            <stop stop-color="#2866E7"/>
            <stop offset=".547" stop-color="#5EB8DA"/>
            <stop offset="1" stop-color="#8AFBD0"/>
        </linearGradient>
    </defs>
</svg>
